
      <svg data-logo="logo" xmlns="http://www.w3.org/2000/svg" viewBox="0 0 318 45">
        <g id="logogram" transform="translate(0, 2.5) rotate(0) "><path d="M30 28V12C30 10.8954 29.1046 10 28 10H27.8994C27.369 10 26.8604 10.2109 26.4854 10.5859L10.5859 26.4854C10.2109 26.8604 10 27.369 10 27.8994V40H0V27.8994C2.15312e-05 24.7168 1.26423 21.6645 3.51465 19.4141L19.4141 3.51465C21.6645 1.26423 24.7168 2.1373e-05 27.8994 0H28C34.6274 0 40 5.37258 40 12V28C40 34.6274 34.6274 40 28 40H14V30H28C29.1046 30 30 29.1046 30 28Z M0 0H17L7 10H0V0Z" fill="#FF4D00"/></g>
        <g id="logotype" transform="translate(46, 1)"><path fill="#ff4d00" d="M18.78 14.42L18.78 35L13.49 35L13.49 14.42L6.70 14.42L6.70 10.01L25.57 10.01L25.57 14.42L18.78 14.42ZM27.25 8.41L32.47 8.41L32.47 13.83Q32.47 15.24 32.37 16.53Q32.28 17.81 32.23 18.34L32.23 18.34L32.50 18.34Q33.11 17.35 33.96 16.73Q34.81 16.12 35.83 15.83Q36.86 15.53 38.04 15.53L38.04 15.53Q40.10 15.53 41.64 16.26Q43.18 16.99 44.04 18.53Q44.89 20.08 44.89 22.54L44.89 22.54L44.89 35L39.68 35L39.68 23.84Q39.68 21.79 38.93 20.75Q38.17 19.70 36.60 19.70L36.60 19.70Q35.03 19.70 34.12 20.43Q33.22 21.16 32.84 22.57Q32.47 23.98 32.47 26.01L32.47 26.01L32.47 35L27.25 35L27.25 8.41ZM56.38 15.53L56.38 15.53Q59.03 15.53 60.95 16.55Q62.86 17.57 63.90 19.50Q64.95 21.43 64.95 24.22L64.95 24.22L64.95 26.75L52.62 26.75Q52.71 28.95 53.95 30.21Q55.19 31.46 57.39 31.46L57.39 31.46Q59.22 31.46 60.74 31.09Q62.26 30.71 63.87 29.96L63.87 29.96L63.87 33.99Q62.45 34.69 60.90 35.02Q59.36 35.34 57.15 35.34L57.15 35.34Q54.28 35.34 52.07 34.28Q49.86 33.22 48.60 31.05Q47.34 28.88 47.34 25.58L47.34 25.58Q47.34 22.23 48.48 20.00Q49.62 17.77 51.65 16.65Q53.68 15.53 56.38 15.53ZM56.42 19.24L56.42 19.24Q54.90 19.24 53.90 20.22Q52.90 21.19 52.74 23.28L52.74 23.28L60.06 23.28Q60.04 22.11 59.64 21.21Q59.24 20.30 58.44 19.77Q57.65 19.24 56.42 19.24ZM75.19 10.01L83.17 10.01Q88.00 10.01 90.23 12.09Q92.45 14.17 92.45 17.81L92.45 17.81Q92.45 19.45 91.95 20.94Q91.46 22.44 90.34 23.60Q89.22 24.76 87.35 25.44Q85.49 26.11 82.76 26.11L82.76 26.11L80.48 26.11L80.48 35L75.19 35L75.19 10.01ZM82.89 14.36L82.89 14.36L80.48 14.36L80.48 21.77L82.23 21.77Q83.71 21.77 84.81 21.38Q85.90 20.99 86.50 20.15Q87.10 19.31 87.10 18.00L87.10 18.00Q87.10 16.15 86.07 15.25Q85.05 14.36 82.89 14.36ZM100.22 8.41L100.22 35L95.00 35L95.00 8.41L100.22 8.41ZM111.76 15.50L111.76 15.50Q115.61 15.50 117.66 17.18Q119.71 18.85 119.71 22.27L119.71 22.27L119.71 35L116.07 35L115.06 32.40L114.92 32.40Q114.10 33.43 113.25 34.08Q112.39 34.73 111.28 35.03Q110.17 35.34 108.58 35.34L108.58 35.34Q106.89 35.34 105.55 34.69Q104.21 34.04 103.44 32.70Q102.67 31.36 102.67 29.29L102.67 29.29Q102.67 26.25 104.81 24.81Q106.94 23.36 111.22 23.21L111.22 23.21L114.53 23.11L114.53 22.27Q114.53 20.76 113.74 20.06Q112.96 19.36 111.56 19.36L111.56 19.36Q110.17 19.36 108.84 19.76Q107.51 20.15 106.17 20.75L106.17 20.75L104.45 17.23Q105.97 16.42 107.86 15.96Q109.75 15.50 111.76 15.50ZM114.53 27.72L114.53 26.15L112.51 26.22Q109.98 26.28 109.00 27.12Q108.02 27.96 108.02 29.33L108.02 29.33Q108.02 30.52 108.72 31.03Q109.42 31.53 110.55 31.53L110.55 31.53Q112.22 31.53 113.38 30.54Q114.53 29.55 114.53 27.72L114.53 27.72ZM123.33 15.89L128.54 15.89L128.54 35L123.33 35L123.33 15.89ZM125.94 8.41L125.94 8.41Q127.10 8.41 127.94 8.95Q128.78 9.48 128.78 10.95L128.78 10.95Q128.78 12.41 127.94 12.96Q127.10 13.52 125.94 13.52L125.94 13.52Q124.76 13.52 123.93 12.96Q123.10 12.41 123.10 10.95L123.10 10.95Q123.10 9.48 123.93 8.95Q124.76 8.41 125.94 8.41ZM143.11 15.53L143.11 15.53Q146.17 15.53 148.03 17.20Q149.89 18.87 149.89 22.54L149.89 22.54L149.89 35L144.68 35L144.68 23.84Q144.68 21.79 143.94 20.75Q143.19 19.70 141.60 19.70L141.60 19.70Q139.21 19.70 138.34 21.33Q137.47 22.95 137.47 26.01L137.47 26.01L137.47 35L132.26 35L132.26 15.89L136.24 15.89L136.94 18.34L137.23 18.34Q137.84 17.35 138.76 16.73Q139.67 16.12 140.79 15.83Q141.91 15.53 143.11 15.53ZM170.90 14.42L170.90 35L165.60 35L165.60 14.42L158.82 14.42L158.82 10.01L177.68 10.01L177.68 14.42L170.90 14.42ZM179.37 8.41L184.58 8.41L184.58 13.83Q184.58 15.24 184.49 16.53Q184.39 17.81 184.34 18.34L184.34 18.34L184.62 18.34Q185.23 17.35 186.08 16.73Q186.92 16.12 187.95 15.83Q188.97 15.53 190.15 15.53L190.15 15.53Q192.22 15.53 193.76 16.26Q195.30 16.99 196.15 18.53Q197.01 20.08 197.01 22.54L197.01 22.54L197.01 35L191.79 35L191.79 23.84Q191.79 21.79 191.04 20.75Q190.29 19.70 188.72 19.70L188.72 19.70Q187.15 19.70 186.24 20.43Q185.33 21.16 184.96 22.57Q184.58 23.98 184.58 26.01L184.58 26.01L184.58 35L179.37 35L179.37 8.41ZM208.50 15.53L208.50 15.53Q211.15 15.53 213.06 16.55Q214.98 17.57 216.02 19.50Q217.06 21.43 217.06 24.22L217.06 24.22L217.06 26.75L204.74 26.75Q204.83 28.95 206.07 30.21Q207.30 31.46 209.51 31.46L209.51 31.46Q211.34 31.46 212.86 31.09Q214.38 30.71 215.99 29.96L215.99 29.96L215.99 33.99Q214.57 34.69 213.02 35.02Q211.47 35.34 209.27 35.34L209.27 35.34Q206.40 35.34 204.19 34.28Q201.97 33.22 200.72 31.05Q199.46 28.88 199.46 25.58L199.46 25.58Q199.46 22.23 200.60 20.00Q201.73 17.77 203.77 16.65Q205.80 15.53 208.50 15.53ZM208.54 19.24L208.54 19.24Q207.01 19.24 206.01 20.22Q205.01 21.19 204.86 23.28L204.86 23.28L212.18 23.28Q212.16 22.11 211.76 21.21Q211.35 20.30 210.56 19.77Q209.77 19.24 208.54 19.24ZM236.91 25.41L236.91 25.41Q236.91 27.81 236.27 29.65Q235.63 31.50 234.41 32.77Q233.19 34.04 231.47 34.69Q229.75 35.34 227.60 35.34L227.60 35.34Q225.58 35.34 223.90 34.69Q222.22 34.04 220.98 32.77Q219.74 31.50 219.06 29.65Q218.39 27.81 218.39 25.41L218.39 25.41Q218.39 22.23 219.52 20.03Q220.65 17.82 222.73 16.68Q224.81 15.53 227.70 15.53L227.70 15.53Q230.39 15.53 232.46 16.68Q234.54 17.82 235.73 20.03Q236.91 22.23 236.91 25.41ZM223.70 25.41L223.70 25.41Q223.70 27.29 224.11 28.57Q224.52 29.86 225.40 30.51Q226.27 31.15 227.67 31.15L227.67 31.15Q229.05 31.15 229.92 30.51Q230.78 29.86 231.18 28.57Q231.58 27.29 231.58 25.41L231.58 25.41Q231.58 23.52 231.18 22.26Q230.78 21.00 229.91 20.37Q229.04 19.74 227.63 19.74L227.63 19.74Q225.57 19.74 224.64 21.16Q223.70 22.58 223.70 25.41ZM250.14 15.53L250.14 15.53Q250.53 15.53 251.05 15.58Q251.57 15.62 251.90 15.69L251.90 15.69L251.50 20.58Q251.25 20.49 250.78 20.45Q250.31 20.41 249.96 20.41L249.96 20.41Q248.96 20.41 248.01 20.66Q247.06 20.92 246.31 21.49Q245.56 22.06 245.12 22.99Q244.68 23.93 244.68 25.28L244.68 25.28L244.68 35L239.47 35L239.47 15.89L243.42 15.89L244.19 19.11L244.44 19.11Q245.01 18.13 245.85 17.32Q246.70 16.51 247.79 16.02Q248.87 15.53 250.14 15.53ZM258.47 34.86L250.88 15.89L256.59 15.89L260.19 26.64Q260.37 27.16 260.48 27.69Q260.60 28.22 260.69 28.78Q260.78 29.34 260.83 29.96L260.83 29.96L260.93 29.96Q261.03 29.04 261.21 28.23Q261.39 27.43 261.66 26.64L261.66 26.64L265.20 15.89L270.79 15.89L262.71 37.44Q261.97 39.43 260.79 40.75Q259.61 42.08 258.08 42.74Q256.55 43.41 254.73 43.41L254.73 43.41Q253.84 43.41 253.19 43.31Q252.54 43.22 252.08 43.12L252.08 43.12L252.08 38.98Q252.44 39.07 252.98 39.14Q253.53 39.20 254.13 39.20L254.13 39.20Q255.22 39.20 256.01 38.74Q256.79 38.28 257.32 37.50Q257.85 36.73 258.16 35.80L258.16 35.80L258.47 34.86Z"/></g>
        
      </svg>
    